<svg width="72" height="40" viewBox="0 0 72 40" fill="none" xmlns="http://www.w3.org/2000/svg">
<path d="M8.27027 32.5458C5.31008 32.5458 3.85291 29.2617 2.99376 26.8329C1.18817 21.7283 3.94525 21.9781 6.47401 18.1536C8.08987 15.7098 16.7154 10.7788 18.5988 14.9676C19.5476 17.0778 21.4536 24.8041 22.3597 18.1536C22.9927 13.5077 25.4181 9.68393 26.4012 5.35446C27.4256 0.843548 31.6207 1.89375 35.4948 1.89375C39.2148 1.89375 42.6237 2.79525 42.6237 7.33201C42.6237 9.48485 41.5985 16.0226 45.4304 12.5506C48.313 9.93853 54.8524 7.6772 59.0145 9.03491C63.1421 10.3813 64.4597 15.2562 66.6486 17.9339C68.0682 19.6704 68.417 24.6019 69.1185 26.8329C70.7832 32.1273 67.4628 32.4337 63.2245 34.029C57.9578 36.0113 51.5427 33.034 46.2723 35.0177C41.0147 36.9966 33.5939 36.9564 27.973 37.4347C24.0845 37.7656 3.63811 39.3001 2.2079 36.5009" stroke="black" stroke-width="3" stroke-linecap="round"/>
</svg>
