<svg width="40" height="30" viewBox="0 0 40 30" fill="none" xmlns="http://www.w3.org/2000/svg">
<path d="M10.7942 24.1714C10.7942 25.3709 10.9205 26.444 10.9205 27.6322" stroke="#828282" stroke-width="3" stroke-linecap="round"/>
<path d="M18.751 23.677C18.751 24.9007 19.0036 26.1837 19.0036 27.3849" stroke="#707070" stroke-width="3" stroke-linecap="round"/>
<path d="M26.9605 22.4411C27.6442 22.692 26.5579 25.4576 27.4657 25.9018" stroke="#878787" stroke-width="3" stroke-linecap="round"/>
<path d="M4.97484 18.3088C3.37607 18.3088 2.58907 16.6122 2.12506 15.3574C1.14988 12.7202 2.63894 12.8493 4.0047 10.8734C4.87741 9.6109 9.53594 7.06339 10.5531 9.22743C11.0656 10.3176 12.095 14.3092 12.5843 10.8734C12.9262 8.47322 14.2362 6.49776 14.7672 4.26103C15.3204 1.93056 17.5861 2.47313 19.6785 2.47313C21.6876 2.47313 23.5287 2.93887 23.5287 5.28269C23.5287 6.39491 22.975 9.7725 25.0445 7.97874C26.6014 6.62929 30.1333 5.46102 32.3812 6.16245C34.6104 6.85804 35.3221 9.37657 36.5043 10.7599C37.271 11.6571 37.4594 14.2048 37.8382 15.3574C38.7373 18.0927 36.944 18.251 34.655 19.0751C31.8105 20.0992 28.3457 18.5611 25.4993 19.5859C22.6597 20.6083 18.6518 20.5875 15.616 20.8346C13.5159 21.0056 2.47306 21.7983 1.70062 20.3522" stroke="#6A6A6A" stroke-width="3" stroke-linecap="round"/>
</svg>
