<svg width="90" height="90" viewBox="0 0 90 90" fill="none" xmlns="http://www.w3.org/2000/svg">
<path d="M51.5 31.5C51.3158 30.0269 45.1857 29 44 29C40.9755 29 38.3057 31.611 35.8889 33.2222C32.4005 35.5478 30.118 38.3683 29.5277 42.5C28.9287 46.6934 29.7526 51.8558 32.7222 55C35.0536 57.4686 37.319 60.2098 40.75 60.9722C44.7767 61.867 47.4999 59.4722 51 58.9722C55.4814 58.332 60.5 53.4754 60.5 49.1111C60.5 41.3375 61.2578 31 51 31" stroke="black" stroke-width="3" stroke-linecap="round"/>
<path d="M24 7C24.4445 9.81487 27.8227 14.9346 29.6944 17.2222C30.5992 18.328 31.7878 20.3939 33 21" stroke="black" stroke-width="3" stroke-linecap="round"/>
<path d="M4 25C5.46583 25 9.44447 26.1112 10 27.5C10.5605 28.9012 13.478 29.7612 14.7222 30.4722C17.2903 31.9397 21.1816 32.5605 24 33.5" stroke="black" stroke-width="3" stroke-linecap="round"/>
<path d="M2 51C2.66959 54.0132 11.1023 53.5 13.1944 53.5C15.0171 53.5 16.8202 53.098 18.1111 54.3889C19.0501 55.3279 20.8074 55 22 55" stroke="black" stroke-width="3" stroke-linecap="round"/>
<path d="M10 79C11.5 78.9375 13.7061 77.3998 15.2222 76.75C17.1225 75.9356 18.6542 73.5433 20.5556 73C23.4189 72.1819 24.9868 69.0044 28 68" stroke="black" stroke-width="3" stroke-linecap="round"/>
<path d="M36 88.5C36 85.2036 36.3057 82.1321 37.1111 79C37.8145 76.2645 38 73.9275 38 71" stroke="black" stroke-width="3" stroke-linecap="round"/>
<path d="M56 84C55.9287 82.7881 54.3232 80.6484 53.5 79.7222C52.4696 78.5631 52.3128 76.9838 51.8889 75.5C51.3149 73.491 50.4457 71.5913 50.1111 69.5C50.0473 69.1011 50.2645 67.1827 49.7222 67.0278C49.0172 66.8263 49 66.788 49 66" stroke="black" stroke-width="3" stroke-linecap="round"/>
<path d="M73.5 68.5C75.2262 67.8527 65.185 61.185 64 60" stroke="black" stroke-width="3" stroke-linecap="round"/>
<path d="M88 48.5C87.8451 47.2605 81.0065 44.3932 79.7778 44C76.8952 43.0776 74.5505 43 71.5 43" stroke="black" stroke-width="3" stroke-linecap="round"/>
<path d="M77 12.5C76.743 13.6563 73.6549 15.6793 72.7222 16.5C71.0908 17.9357 69.4522 19.38 67.7778 20.75C65.8623 22.3172 64.4478 24.2015 62.5 25.5" stroke="black" stroke-width="3" stroke-linecap="round"/>
<path d="M56 2C54.2191 4.00354 54 8.6164 54 11.2222C54 13.2332 52.5989 14.621 52.5 16.5C52.4367 17.7026 52.8221 19.1779 52 20" stroke="black" stroke-width="3" stroke-linecap="round"/>
</svg>
